<?xml version="1.0" encoding="utf-8"?>
<!-- Generator: Adobe Illustrator 16.0.3, SVG Export Plug-In . SVG Version: 6.00 Build 0)  -->
<!DOCTYPE svg PUBLIC "-//W3C//DTD SVG 1.1//EN" "http://www.w3.org/Graphics/SVG/1.1/DTD/svg11.dtd">
<svg version="1.1" id="Layer_1" xmlns="http://www.w3.org/2000/svg" xmlns:xlink="http://www.w3.org/1999/xlink" x="0px" y="0px"
	 width="128px" height="128px" viewBox="0 0 128 128" enable-background="new 0 0 128 128" xml:space="preserve">
<path d="M124.008,48.967c-3.319-7.543-8.975-13.678-16.103-17.544c-2.13-13.536-11.5-24.818-24.558-29.234
	c-3.803-1.287-7.752-1.939-11.736-1.939c-9.507,0-18.646,3.672-25.521,10.226C44.216,10.18,42.322,10,40.429,10
	c-0.001,0-0.002,0-0.003,0C24.539,10,10.415,20.229,5.28,35.409c-3.122,9.225-2.523,19.262,1.585,27.963
	c-0.791,1.571-1.474,3.211-2.041,4.887c-6.579,19.445,3.75,40.577,23.026,47.097c3.803,1.287,7.751,1.942,11.737,1.942
	c1.643,0,3.29-0.113,4.923-0.335c3.979,3.996,8.841,7.03,14.218,8.849c3.803,1.286,7.752,1.938,11.737,1.938
	c15.889,0,30.015-10.199,35.151-25.378c0.567-1.681,1.018-3.396,1.343-5.129c8.542-4.421,15.097-12.018,18.218-21.239
	C128.184,67.117,127.768,57.515,124.008,48.967z"/>
<path fill="#EF7C2A" d="M105.025,38.205c-0.094,3.391-0.696,6.745-1.802,10.01c-2.473,7.309-7.173,13.395-13.593,17.599
	c-5.515,3.61-11.88,5.518-18.406,5.518c-0.579,0-1.166-0.016-1.745-0.046c-2.084-0.11-4.17-0.42-6.2-0.921
	c-0.751-0.187-1.486-0.395-2.194-0.62c0.128,0.702,0.282,1.401,0.459,2.093c1.562,6.064,5.055,11.577,9.835,15.521
	c2.744,2.265,5.858,3.996,9.257,5.146c3.044,1.029,6.203,1.552,9.389,1.552c3.888,0,7.695-0.764,11.316-2.271
	c7.96-3.313,14.118-9.92,16.896-18.129c2.418-7.149,2.086-14.87-0.936-21.739C114.737,46.089,110.439,41.313,105.025,38.205z"/>
<path fill="#E5CD52" d="M98.677,100.025c0.375-1.108,0.687-2.237,0.931-3.378c-3.11,0.936-6.32,1.408-9.582,1.408
	c-3.622,0-7.213-0.593-10.671-1.763c-3.861-1.308-7.4-3.275-10.521-5.85c-5.427-4.478-9.392-10.731-11.163-17.609
	c-0.504-1.963-0.834-3.976-0.98-5.984c-0.061-0.829-0.091-1.663-0.09-2.497c-0.669,0.369-1.324,0.762-1.96,1.179
	c-5.278,3.454-9.273,8.403-11.555,14.313c-0.156,0.402-0.304,0.81-0.444,1.223c-3.388,10.015-1.387,20.803,5.352,28.857
	c3.45,4.124,7.974,7.218,13.083,8.947c3.045,1.03,6.204,1.553,9.39,1.553C83.212,120.425,94.549,112.227,98.677,100.025z"/>
<path fill="#78BD65" d="M49.365,51.769c-2.549-0.862-5.193-1.371-7.858-1.511c-0.508-0.027-1.023-0.04-1.532-0.04
	c-10.25,0-19.966,5.475-25.357,14.29c-1.167,1.906-2.127,3.961-2.855,6.109c-5.283,15.618,2.986,32.578,18.435,37.806
	c3.043,1.029,6.202,1.551,9.388,1.551c1.098,0,2.198-0.063,3.292-0.187c-5.973-8.761-7.497-19.741-4.026-30.001
	c0.158-0.467,0.326-0.927,0.501-1.382c2.585-6.694,7.113-12.302,13.095-16.217c1.749-1.146,3.617-2.135,5.552-2.941
	c0.748-0.312,1.509-0.596,2.279-0.854c-0.535-0.515-1.089-1.008-1.658-1.479C55.877,54.649,52.762,52.918,49.365,51.769z"/>
<path fill="#4FB4D8" d="M49.82,18.94c-0.785-0.265-1.595-0.501-2.404-0.701c-2.288-0.564-4.638-0.85-6.986-0.85
	c-12.746,0-24.083,8.197-28.21,20.398c-2.427,7.173-2.061,14.942,0.949,21.769c6.346-8.303,16.329-13.339,26.807-13.339
	c0.579,0,1.165,0.015,1.743,0.046c3.029,0.16,6.033,0.737,8.929,1.716c3.86,1.307,7.399,3.274,10.52,5.848
	c1.572,1.297,3.035,2.751,4.349,4.322c0.497,0.594,0.975,1.208,1.432,1.837c0.312-0.662,0.601-1.335,0.863-2.018
	c0.157-0.405,0.306-0.813,0.446-1.226c1.881-5.563,2.107-11.49,0.655-17.136C66.403,29.863,59.266,22.137,49.82,18.94z"/>
<path fill="#EB3D54" d="M81,9.127c-3.045-1.03-6.204-1.553-9.39-1.553c-7.389,0-14.505,2.798-19.964,7.766
	c10.461,3.741,18.341,12.399,21.139,23.27c1.646,6.399,1.391,13.114-0.74,19.417c-0.159,0.469-0.327,0.93-0.503,1.385
	c-0.742,1.921-1.661,3.783-2.73,5.531c-0.445,0.728-0.919,1.44-1.419,2.134c0.764,0.102,1.531,0.173,2.298,0.214
	c0.509,0.026,1.025,0.04,1.534,0.04c5.746,0,11.354-1.682,16.215-4.864c5.664-3.708,9.813-9.081,11.995-15.535
	c1.305-3.853,1.816-7.842,1.522-11.86C100.082,23.117,92.248,12.933,81,9.127z"/>
<g>
</g>
<g>
</g>
<g>
</g>
<g>
</g>
<g>
</g>
<g>
</g>
<g>
</g>
<g>
</g>
<g>
</g>
<g>
</g>
<g>
</g>
<g>
</g>
<g>
</g>
<g>
</g>
<g>
</g>
</svg>
