<?xml version="1.0" encoding="utf-8"?>
<!-- Generator: Adobe Illustrator 16.0.3, SVG Export Plug-In . SVG Version: 6.00 Build 0)  -->
<!DOCTYPE svg PUBLIC "-//W3C//DTD SVG 1.1//EN" "http://www.w3.org/Graphics/SVG/1.1/DTD/svg11.dtd">
<svg version="1.1" id="Layer_1" xmlns="http://www.w3.org/2000/svg" xmlns:xlink="http://www.w3.org/1999/xlink" x="0px" y="0px"
	 width="128px" height="128px" viewBox="0 0 128 128" enable-background="new 0 0 128 128" xml:space="preserve">
<path fill="#C8C8C8" d="M118.638,41.368c-0.332-8.345-3.79-16.322-9.736-22.271c-5.99-5.986-13.855-9.415-22.271-9.737
	C80.495,3.696,72.41,0.5,64,0.5c-8.411,0-16.496,3.196-22.629,8.859c-8.417,0.322-16.283,3.752-22.274,9.741
	c-5.948,5.951-9.405,13.929-9.735,22.269C3.697,47.502,0.5,55.588,0.5,64c0,8.411,3.197,16.497,8.862,22.633
	c0.331,8.338,3.787,16.315,9.737,22.271c5.986,5.984,13.851,9.413,22.27,9.736c6.134,5.665,14.219,8.86,22.631,8.86
	c8.411,0,16.496-3.195,22.631-8.86c8.417-0.322,16.283-3.752,22.272-9.738c5.945-5.948,9.402-13.924,9.734-22.268
	C124.304,80.497,127.5,72.411,127.5,64C127.5,55.587,124.304,47.501,118.638,41.368z"/>
<path fill="#00BE6E" d="M23.872,61.491c-4.816-4.816-7.394-11.018-7.744-17.32C10.68,49.042,7.25,56.117,7.25,64
	s3.43,14.958,8.877,19.831c4.705,4.206,10.913,6.771,17.725,6.771c14.193-0.001,25.785-11.116,26.558-25.112
	c0.025-0.495,0.041-0.99,0.041-1.491c0-0.498-0.016-0.993-0.041-1.486C49.963,71.864,33.908,71.526,23.872,61.491z"/>
<path fill="#00CBF5" d="M23.872,23.872c-5.571,5.574-8.153,13.002-7.744,20.299c0.351,6.303,2.928,12.504,7.744,17.32
	c10.036,10.036,26.092,10.374,36.539,1.022c0.366-0.33,0.729-0.668,1.08-1.022c0.354-0.351,0.692-0.714,1.022-1.08
	C48.51,59.638,37.398,48.045,37.397,33.852c0.001-6.81,2.563-13.02,6.774-17.726C36.874,15.719,29.446,18.299,23.872,23.872z"/>
<path fill="#1E78FF" d="M44.171,16.125c-4.21,4.707-6.773,10.916-6.774,17.726c0.001,14.194,11.113,25.786,25.115,26.559
	c0.492,0.026,0.988,0.042,1.487,0.042c0.5,0,0.995-0.017,1.491-0.042c-9.357-10.446-9.018-26.504,1.014-36.539
	c4.82-4.815,11.022-7.394,17.325-7.744C78.957,10.68,71.883,7.25,64,7.25S49.042,10.68,44.171,16.125z"/>
<path fill="#AA78FF" d="M65.491,60.411c0.327,0.366,0.667,0.729,1.014,1.08c0.354,0.354,0.72,0.692,1.087,1.024
	c0.772-14.001,12.362-25.117,26.558-25.117c6.811,0,13.021,2.563,17.725,6.773c0.403-7.296-2.172-14.725-7.744-20.299
	c-5.575-5.572-13.007-8.152-20.3-7.744c-6.303,0.35-12.505,2.929-17.325,7.744C56.473,33.907,56.134,49.964,65.491,60.411z"/>
<path fill="#F05AAA" d="M67.592,62.515c-0.026,0.491-0.045,0.986-0.045,1.485c0,0.5,0.019,0.995,0.045,1.491
	c10.44-9.359,26.501-9.018,36.538,1.015c4.813,4.819,7.392,11.021,7.744,17.325c5.446-4.874,8.876-11.948,8.876-19.831
	s-3.43-14.958-8.876-19.83c-4.704-4.209-10.914-6.773-17.725-6.773C79.954,37.397,68.364,48.514,67.592,62.515z"/>
<path fill="#F03C46" d="M90.602,94.149c0,6.811-2.564,13.021-6.771,17.725c7.293,0.404,14.725-2.172,20.3-7.744
	c5.572-5.575,8.147-13.007,7.744-20.299c-0.353-6.304-2.931-12.506-7.744-17.325c-10.037-10.033-26.098-10.374-36.538-1.015
	c-0.367,0.327-0.733,0.667-1.087,1.015c-0.348,0.354-0.688,0.719-1.015,1.087C79.486,68.364,90.602,79.955,90.602,94.149z"/>
<path fill="#FF783D" d="M61.491,104.13c-4.816,4.813-11.018,7.392-17.32,7.744c4.872,5.446,11.947,8.876,19.83,8.876
	s14.957-3.43,19.83-8.876c4.207-4.704,6.771-10.914,6.771-17.725c0-14.194-11.115-25.785-25.111-26.557
	c-0.496-0.026-0.99-0.045-1.49-0.045c-0.499,0-0.994,0.019-1.485,0.045C71.864,78.032,71.526,94.093,61.491,104.13z"/>
<path fill="#E6C84C" d="M62.515,67.593c-0.33-0.368-0.669-0.733-1.024-1.087c-0.351-0.348-0.714-0.688-1.08-1.016
	c-0.045,0.784-0.128,1.564-0.24,2.334c-1.675,11.635-10.866,20.83-22.495,22.501c-1.249,0.185-2.525,0.277-3.824,0.277
	c-6.812-0.001-13.021-2.565-17.725-6.771c-0.409,7.292,2.173,14.724,7.744,20.299c5.574,5.572,13.002,8.147,20.299,7.744
	c6.303-0.353,12.504-2.931,17.32-7.744C71.526,94.093,71.864,78.032,62.515,67.593z"/>
<circle cx="64" cy="64" r="3.547"/>
<path fill="none" stroke="#000000" stroke-width="2.7571" stroke-miterlimit="10" d="M60.411,62.513
	c0.025,0.493,0.041,0.988,0.041,1.486c0,0.501-0.016,0.996-0.041,1.491c-0.773,13.996-12.365,25.111-26.558,25.112
	c-6.812-0.001-13.021-2.565-17.725-6.771C10.68,78.958,7.25,71.883,7.25,64s3.43-14.958,8.877-19.83
	c0.351,6.303,2.928,12.504,7.744,17.32C33.908,71.526,49.963,71.864,60.411,62.513z M23.872,23.872
	c-5.571,5.574-8.153,13.002-7.744,20.299c0.351,6.303,2.928,12.504,7.744,17.32c10.036,10.036,26.092,10.374,36.539,1.022
	c0.366-0.33,0.729-0.668,1.08-1.022c0.354-0.351,0.692-0.714,1.022-1.08C48.51,59.638,37.398,48.045,37.397,33.852
	c0.001-6.81,2.563-13.02,6.774-17.726C36.874,15.719,29.446,18.299,23.872,23.872z M44.171,16.125
	c-4.21,4.707-6.773,10.916-6.774,17.726c0.001,14.194,11.113,25.786,25.115,26.559c0.492,0.026,0.988,0.042,1.487,0.042
	c0.5,0,0.995-0.017,1.491-0.042c-9.357-10.446-9.018-26.504,1.014-36.539c4.82-4.815,11.022-7.394,17.325-7.744
	C78.957,10.68,71.883,7.25,64,7.25S49.042,10.68,44.171,16.125z M65.491,60.411c0.327,0.366,0.667,0.729,1.014,1.08
	c0.354,0.354,0.72,0.692,1.087,1.024c0.772-14.001,12.362-25.117,26.558-25.117c6.811,0,13.021,2.563,17.725,6.773
	c0.403-7.296-2.172-14.725-7.744-20.299c-5.575-5.572-13.007-8.152-20.3-7.744c-6.303,0.35-12.505,2.929-17.325,7.744
	C56.473,33.907,56.134,49.964,65.491,60.411z M67.592,62.515c-0.026,0.491-0.045,0.986-0.045,1.485c0,0.5,0.019,0.995,0.045,1.491
	c10.44-9.359,26.501-9.018,36.538,1.015c4.813,4.819,7.392,11.021,7.744,17.325c5.446-4.874,8.876-11.948,8.876-19.831
	s-3.43-14.958-8.876-19.83c-4.704-4.209-10.914-6.773-17.725-6.773C79.954,37.397,68.364,48.514,67.592,62.515z M90.602,94.149
	c0,6.811-2.564,13.021-6.771,17.725c7.293,0.404,14.725-2.172,20.3-7.744c5.572-5.575,8.147-13.007,7.744-20.299
	c-0.353-6.304-2.931-12.506-7.744-17.325c-10.037-10.033-26.098-10.374-36.538-1.015c-0.367,0.327-0.733,0.667-1.087,1.015
	c-0.348,0.354-0.688,0.719-1.015,1.087C79.486,68.364,90.602,79.955,90.602,94.149z M61.491,104.13
	c-4.816,4.813-11.018,7.392-17.32,7.744c4.872,5.446,11.947,8.876,19.83,8.876s14.957-3.43,19.83-8.876
	c4.207-4.704,6.771-10.914,6.771-17.725c0-14.194-11.115-25.785-25.111-26.557c-0.496-0.026-0.99-0.045-1.49-0.045
	c-0.499,0-0.994,0.019-1.485,0.045C71.864,78.032,71.526,94.093,61.491,104.13z M62.515,67.593c-0.33-0.368-0.669-0.733-1.024-1.087
	c-0.351-0.348-0.714-0.688-1.08-1.016c-0.045,0.784-0.128,1.564-0.24,2.334c-1.675,11.635-10.866,20.83-22.495,22.501
	c-1.249,0.185-2.525,0.277-3.824,0.277c-6.812-0.001-13.021-2.565-17.725-6.771c-0.409,7.292,2.173,14.724,7.744,20.299
	c5.574,5.572,13.002,8.147,20.299,7.744c6.303-0.353,12.504-2.931,17.32-7.744C71.526,94.093,71.864,78.032,62.515,67.593z"/>
</svg>
